<svg xmlns="http://www.w3.org/2000/svg" version="1.1" xmlns:xlink="http://www.w3.org/1999/xlink" xmlns:svgjs="http://svgjs.dev/svgjs" width="1000" height="623" viewBox="0 0 1000 623"><g transform="matrix(1,0,0,1,-0.6060606060606233,0.2522267206477409)"><svg viewBox="0 0 396 247" data-background-color="#fafafa" preserveAspectRatio="xMidYMid meet" height="623" width="1000" xmlns="http://www.w3.org/2000/svg" xmlns:xlink="http://www.w3.org/1999/xlink"><g id="tight-bounds" transform="matrix(1,0,0,1,0.2400000000000091,-0.09999999999999432)"><svg viewBox="0 0 395.52 247.2" height="247.2" width="395.52"><g><svg></svg></g><g><svg viewBox="0 0 395.52 247.2" height="247.2" width="395.52"><g transform="matrix(1,0,0,1,75.54432000000001,102.9260011967779)"><svg viewBox="0 0 244.43135999999996 41.347997606444174" height="41.347997606444174" width="244.43135999999996"><g><svg viewBox="0 0 244.43136 41.34799760644418" height="41.347997606444174" width="244.43135999999996"><g><svg viewBox="0 0 244.43136 41.34799760644418" height="41.34799760644418" width="244.43136"><g id="textblocktransform"><svg viewBox="0 0 244.43136 41.34799760644418" height="41.34799760644418" width="244.43136" id="textblock"><g><svg viewBox="0 0 244.43136 41.34799760644418" height="41.34799760644418" width="244.43136"><g transform="matrix(1,0,0,1,0,0)"><svg width="244.43136" viewBox="3.75 -36.150001525878906 217.22999572753906 36.75" height="41.34799760644418" data-palette-color="#130912"><path d="M3.75 0L3.75-34.3 12.1-34.3 19.3-12.3Q19.95-10.25 20.85-6.35L20.85-6.35 21.05-6.35Q21.95-10.55 22.55-12.3L22.55-12.3 29.7-34.3 37.9-34.3 37.9 0 32.35 0 32.35-22.4 32.55-28.55 32.2-28.55Q31.7-26.3 31.3-25L31.3-25 23.05 0 18.2 0 10.05-25Q9.8-25.75 9.35-27.55L9.35-27.55 9.1-28.55 8.85-28.55 9-22.4 9 0 3.75 0ZM45.05-30.9L45.05-36.15 50.15-36.15 50.15-30.9 45.05-30.9ZM45.05 0L45.05-26.3 50.2-26.3 50.2 0 45.05 0ZM57 0L57-26.3 61.15-26.3 61.65-22.8 62-22.8Q63.4-24.8 65.62-25.85 67.85-26.9 70.65-26.9L70.65-26.9Q79-26.9 79-17.85L79-17.85 79 0 73.85 0 73.85-17.2Q73.85-20.15 72.52-21.33 71.2-22.5 68.65-22.5L68.65-22.5Q66.9-22.5 65.4-21.63 63.9-20.75 63.02-19.15 62.15-17.55 62.15-15.45L62.15-15.45 62.15 0 57 0ZM94.44 0.6Q89.44 0.6 86.74-2.78 84.04-6.15 84.04-13.15L84.04-13.15Q84.04-20.05 86.74-23.48 89.44-26.9 94.09-26.9L94.09-26.9Q99.54-26.9 102.04-23.3L102.04-23.3 102.34-23.3 102.34-36.15 107.49-36.15 107.49 0 103.39 0 102.89-3.5 102.54-3.5Q101.29-1.5 99.17-0.45 97.04 0.6 94.44 0.6L94.44 0.6ZM95.89-3.75Q99.24-3.75 100.79-6.05 102.34-8.35 102.34-12.85L102.34-12.85 102.34-13.25Q102.34-22.55 95.89-22.55L95.89-22.55Q92.34-22.55 90.84-20.43 89.34-18.3 89.34-13.3L89.34-13.3 89.34-12.85Q89.34-7.95 90.84-5.85 92.34-3.75 95.89-3.75L95.89-3.75ZM114.64 0L114.64-34.3 122.99-34.3 130.19-12.3Q130.84-10.25 131.74-6.35L131.74-6.35 131.94-6.35Q132.84-10.55 133.44-12.3L133.44-12.3 140.59-34.3 148.79-34.3 148.79 0 143.24 0 143.24-22.4 143.44-28.55 143.09-28.55Q142.59-26.3 142.19-25L142.19-25 133.94 0 129.09 0 120.94-25Q120.69-25.75 120.24-27.55L120.24-27.55 119.99-28.55 119.74-28.55 119.89-22.4 119.89 0 114.64 0ZM162.74 0.6Q159.49 0.6 156.86-1 154.24-2.6 154.24-6.8L154.24-6.8Q154.24-11.85 158.64-13.8 163.04-15.75 171.24-15.75L171.24-15.75 171.24-18.35Q171.24-20.5 170.11-21.63 168.99-22.75 165.94-22.75L165.94-22.75Q162.99-22.75 161.76-21.7 160.54-20.65 160.54-19.15L160.54-19.15 160.54-18.5 155.54-18.5Q155.49-18.8 155.49-19.6L155.49-19.6Q155.49-23.05 158.39-24.98 161.29-26.9 166.14-26.9L166.14-26.9Q171.24-26.9 173.81-24.8 176.39-22.7 176.39-18.85L176.39-18.85 176.39-5.4Q176.39-4.5 176.89-4.08 177.39-3.65 178.14-3.65L178.14-3.65 179.94-3.65 179.94-0.2Q178.64 0.45 176.39 0.45L176.39 0.45Q174.59 0.45 173.36-0.53 172.14-1.5 171.74-3.2L171.74-3.2 171.39-3.2Q169.99-1.4 167.81-0.4 165.64 0.6 162.74 0.6L162.74 0.6ZM164.24-3.6Q167.19-3.6 169.21-5.38 171.24-7.15 171.24-10.25L171.24-10.25 171.24-11.85Q165.54-11.85 162.54-10.88 159.54-9.9 159.54-7.2L159.54-7.2Q159.54-5.35 160.71-4.48 161.89-3.6 164.24-3.6L164.24-3.6ZM190.04 0.55Q187.04 0.55 185.69-1.18 184.34-2.9 184.34-5.45L184.34-5.45 184.34-22.05 181.14-22.05 181.14-26.3 184.39-26.3 185.39-33.65 189.49-33.65 189.49-26.3 193.94-26.3 193.94-22.05 189.49-22.05 189.49-5.95Q189.49-3.65 191.64-3.65L191.64-3.65 193.94-3.65 193.94-0.15Q193.29 0.15 192.16 0.35 191.04 0.55 190.04 0.55L190.04 0.55ZM209.53 0.6Q203.18 0.6 200.08-2.75 196.98-6.1 196.98-13.15L196.98-13.15Q196.98-20.2 200.08-23.55 203.18-26.9 209.53-26.9L209.53-26.9Q215.28-26.9 218.13-23.78 220.98-20.65 220.98-13.85L220.98-13.85 220.98-11.85 202.28-11.85Q202.48-7.6 204.21-5.58 205.93-3.55 209.58-3.55L209.58-3.55Q212.43-3.55 214.18-4.9 215.93-6.25 215.93-9.05L215.93-9.05 220.98-9.05Q220.98-4.35 217.81-1.88 214.63 0.6 209.53 0.6L209.53 0.6ZM202.38-15.75L215.63-15.75Q215.63-22.75 209.53-22.75L209.53-22.75Q206.13-22.75 204.43-21.08 202.73-19.4 202.38-15.75L202.38-15.75Z" opacity="1" transform="matrix(1,0,0,1,0,0)" fill="#130912" class="wordmark-text-0" data-fill-palette-color="primary" id="text-0"></path></svg></g></svg></g></svg></g></svg></g></svg></g></svg></g><path d="M210.915 96.926L210.915 34.839 388.436 34.839 388.436 212.361 210.915 212.361 210.915 150.274 214.644 150.274 214.644 208.632 384.708 208.632 384.708 38.568 214.644 38.568 214.644 96.926Z" fill="#130912" stroke="transparent" data-fill-palette-color="primary"></path></svg></g><defs></defs></svg><rect width="395.52" height="247.2" fill="none" stroke="none" visibility="hidden"></rect></g></svg></g></svg>